<svg xmlns="http://www.w3.org/2000/svg" xmlns:xlink="http://www.w3.org/1999/xlink" contentStyleType="text/css" data-diagram-type="CLASS" height="637px" preserveAspectRatio="none" style="width:232px;height:637px;background:#1B1B1B;" version="1.1" viewBox="0 0 232 637" width="232px" zoomAndPan="magnify"><defs/><g><rect fill="#1B1B1B" height="637" style="stroke:none;stroke-width:1;" width="232" x="0" y="0"/><!--class Usuario--><g id="elem_Usuario"><rect codeLine="1" fill="#313139" height="162.0781" id="Usuario" rx="2.5" ry="2.5" style="stroke:#E7E7E7;stroke-width:0.5;" width="155.2676" x="38.67" y="7"/><ellipse cx="85.4517" cy="23" fill="#2E5233" rx="11" ry="11" style="stroke:#E7E7E7;stroke-width:1;"/><path d="M88.4205,28.6406 Q87.8424,28.9375 87.2017,29.0781 Q86.5611,29.2344 85.858,29.2344 Q83.358,29.2344 82.0299,27.5938 Q80.7174,25.9375 80.7174,22.8125 Q80.7174,19.6875 82.0299,18.0313 Q83.358,16.375 85.858,16.375 Q86.5611,16.375 87.2017,16.5313 Q87.858,16.6875 88.4205,16.9844 L88.4205,19.7031 Q87.7955,19.125 87.2017,18.8594 Q86.608,18.5781 85.983,18.5781 Q84.6392,18.5781 83.9517,19.6563 Q83.2642,20.7188 83.2642,22.8125 Q83.2642,24.9063 83.9517,25.9844 Q84.6392,27.0469 85.983,27.0469 Q86.608,27.0469 87.2017,26.7813 Q87.7955,26.5 88.4205,25.9219 L88.4205,28.6406 Z " fill="#FFFFFF"/><text fill="#FFFFFF" font-family="sans-serif" font-size="14" lengthAdjust="spacing" textLength="53.2041" x="105.9517" y="27.8467">Usuario</text><line style="stroke:#E7E7E7;stroke-width:0.5;" x1="39.67" x2="192.9376" y1="39" y2="39"/><rect fill="none" height="6" style="stroke:#C82930;stroke-width:1;" width="6" x="46.67" y="49.6484"/><text fill="#FFFFFF" font-family="sans-serif" font-size="14" lengthAdjust="spacing" textLength="56.0684" x="58.67" y="55.9951">id: Long</text><rect fill="none" height="6" style="stroke:#C82930;stroke-width:1;" width="6" x="46.67" y="65.9453"/><text fill="#FFFFFF" font-family="sans-serif" font-size="14" lengthAdjust="spacing" textLength="105.2803" x="58.67" y="72.292">nombre: String</text><rect fill="none" height="6" style="stroke:#C82930;stroke-width:1;" width="6" x="46.67" y="82.2422"/><text fill="#FFFFFF" font-family="sans-serif" font-size="14" lengthAdjust="spacing" textLength="89.5576" x="58.67" y="88.5889">email: String</text><rect fill="none" height="6" style="stroke:#C82930;stroke-width:1;" width="6" x="46.67" y="98.5391"/><text fill="#FFFFFF" font-family="sans-serif" font-size="14" lengthAdjust="spacing" textLength="129.2676" x="58.67" y="104.8857">contrasena: String</text><line style="stroke:#E7E7E7;stroke-width:0.5;" x1="39.67" x2="192.9376" y1="112.1875" y2="112.1875"/><ellipse cx="49.67" cy="125.8359" fill="#84BE84" rx="3" ry="3" style="stroke:#038048;stroke-width:1;"/><text fill="#FFFFFF" font-family="sans-serif" font-size="14" lengthAdjust="spacing" textLength="97.5283" x="58.67" y="129.1826">crearCuenta()</text><ellipse cx="49.67" cy="142.1328" fill="#84BE84" rx="3" ry="3" style="stroke:#038048;stroke-width:1;"/><text fill="#FFFFFF" font-family="sans-serif" font-size="14" lengthAdjust="spacing" textLength="99.6201" x="58.67" y="145.4795">iniciarSesion()</text><ellipse cx="49.67" cy="158.4297" fill="#84BE84" rx="3" ry="3" style="stroke:#038048;stroke-width:1;"/><text fill="#FFFFFF" font-family="sans-serif" font-size="14" lengthAdjust="spacing" textLength="99.2031" x="58.67" y="161.7764">cerrarSesion()</text></g><!--class Producto--><g id="elem_Producto"><rect codeLine="11" fill="#313139" height="162.0781" id="Producto" rx="2.5" ry="2.5" style="stroke:#E7E7E7;stroke-width:0.5;" width="167.8799" x="32.36" y="468.86"/><ellipse cx="80.9122" cy="484.86" fill="#2E5233" rx="11" ry="11" style="stroke:#E7E7E7;stroke-width:1;"/><path d="M83.881,490.5006 Q83.3029,490.7975 82.6622,490.9381 Q82.0216,491.0944 81.3185,491.0944 Q78.8185,491.0944 77.4904,489.4538 Q76.1779,487.7975 76.1779,484.6725 Q76.1779,481.5475 77.4904,479.8913 Q78.8185,478.235 81.3185,478.235 Q82.0216,478.235 82.6622,478.3913 Q83.3185,478.5475 83.881,478.8444 L83.881,481.5631 Q83.256,480.985 82.6622,480.7194 Q82.0685,480.4381 81.4435,480.4381 Q80.0997,480.4381 79.4122,481.5163 Q78.7247,482.5788 78.7247,484.6725 Q78.7247,486.7663 79.4122,487.8444 Q80.0997,488.9069 81.4435,488.9069 Q82.0685,488.9069 82.6622,488.6413 Q83.256,488.36 83.881,487.7819 L83.881,490.5006 Z " fill="#FFFFFF"/><text fill="#FFFFFF" font-family="sans-serif" font-size="14" lengthAdjust="spacing" textLength="62.2754" x="101.4122" y="489.7067">Producto</text><line style="stroke:#E7E7E7;stroke-width:0.5;" x1="33.36" x2="199.2399" y1="500.86" y2="500.86"/><rect fill="none" height="6" style="stroke:#C82930;stroke-width:1;" width="6" x="40.36" y="511.5084"/><text fill="#FFFFFF" font-family="sans-serif" font-size="14" lengthAdjust="spacing" textLength="56.0684" x="52.36" y="517.8551">id: Long</text><rect fill="none" height="6" style="stroke:#C82930;stroke-width:1;" width="6" x="40.36" y="527.8053"/><text fill="#FFFFFF" font-family="sans-serif" font-size="14" lengthAdjust="spacing" textLength="105.2803" x="52.36" y="534.152">nombre: String</text><rect fill="none" height="6" style="stroke:#C82930;stroke-width:1;" width="6" x="40.36" y="544.1022"/><text fill="#FFFFFF" font-family="sans-serif" font-size="14" lengthAdjust="spacing" textLength="130.9971" x="52.36" y="550.4489">descripcion: String</text><rect fill="none" height="6" style="stroke:#C82930;stroke-width:1;" width="6" x="40.36" y="560.3991"/><text fill="#FFFFFF" font-family="sans-serif" font-size="14" lengthAdjust="spacing" textLength="102.1836" x="52.36" y="566.7457">precio: Double</text><line style="stroke:#E7E7E7;stroke-width:0.5;" x1="33.36" x2="199.2399" y1="574.0475" y2="574.0475"/><ellipse cx="43.36" cy="587.6959" fill="#84BE84" rx="3" ry="3" style="stroke:#038048;stroke-width:1;"/><text fill="#FFFFFF" font-family="sans-serif" font-size="14" lengthAdjust="spacing" textLength="128.2559" x="52.36" y="591.0426">agregarProducto()</text><ellipse cx="43.36" cy="603.9928" fill="#84BE84" rx="3" ry="3" style="stroke:#038048;stroke-width:1;"/><text fill="#FFFFFF" font-family="sans-serif" font-size="14" lengthAdjust="spacing" textLength="141.8799" x="52.36" y="607.3395">actualizarProducto()</text><ellipse cx="43.36" cy="620.2897" fill="#84BE84" rx="3" ry="3" style="stroke:#038048;stroke-width:1;"/><text fill="#FFFFFF" font-family="sans-serif" font-size="14" lengthAdjust="spacing" textLength="130.3271" x="52.36" y="623.6364">eliminarProducto()</text></g><!--class Carrito--><g id="elem_Carrito"><rect codeLine="21" fill="#313139" height="145.7813" id="Carrito" rx="2.5" ry="2.5" style="stroke:#E7E7E7;stroke-width:0.5;" width="218.6025" x="7" y="246.08"/><ellipse cx="88.146" cy="262.08" fill="#2E5233" rx="11" ry="11" style="stroke:#E7E7E7;stroke-width:1;"/><path d="M91.1147,267.7206 Q90.5366,268.0175 89.896,268.1581 Q89.2554,268.3144 88.5522,268.3144 Q86.0522,268.3144 84.7241,266.6738 Q83.4116,265.0175 83.4116,261.8925 Q83.4116,258.7675 84.7241,257.1113 Q86.0522,255.455 88.5522,255.455 Q89.2554,255.455 89.896,255.6113 Q90.5522,255.7675 91.1147,256.0644 L91.1147,258.7831 Q90.4897,258.205 89.896,257.9394 Q89.3022,257.6581 88.6772,257.6581 Q87.3335,257.6581 86.646,258.7363 Q85.9585,259.7988 85.9585,261.8925 Q85.9585,263.9863 86.646,265.0644 Q87.3335,266.1269 88.6772,266.1269 Q89.3022,266.1269 89.896,265.8613 Q90.4897,265.58 91.1147,265.0019 L91.1147,267.7206 Z " fill="#FFFFFF"/><text fill="#FFFFFF" font-family="sans-serif" font-size="14" lengthAdjust="spacing" textLength="47.8105" x="108.646" y="266.9267">Carrito</text><line style="stroke:#E7E7E7;stroke-width:0.5;" x1="8" x2="224.6025" y1="278.08" y2="278.08"/><rect fill="none" height="6" style="stroke:#C82930;stroke-width:1;" width="6" x="15" y="288.7284"/><text fill="#FFFFFF" font-family="sans-serif" font-size="14" lengthAdjust="spacing" textLength="56.0684" x="27" y="295.0751">id: Long</text><rect fill="none" height="6" style="stroke:#C82930;stroke-width:1;" width="6" x="15" y="305.0253"/><text fill="#FFFFFF" font-family="sans-serif" font-size="14" lengthAdjust="spacing" textLength="114.2012" x="27" y="311.372">usuario: Usuario</text><rect fill="none" height="6" style="stroke:#C82930;stroke-width:1;" width="6" x="15" y="321.3222"/><text fill="#FFFFFF" font-family="sans-serif" font-size="14" lengthAdjust="spacing" textLength="189.3896" x="27" y="327.6689">productos: List&lt;Producto&gt;</text><line style="stroke:#E7E7E7;stroke-width:0.5;" x1="8" x2="224.6025" y1="334.9706" y2="334.9706"/><ellipse cx="18" cy="348.6191" fill="#84BE84" rx="3" ry="3" style="stroke:#038048;stroke-width:1;"/><text fill="#FFFFFF" font-family="sans-serif" font-size="14" lengthAdjust="spacing" textLength="190.5313" x="27" y="351.9657">agregarProducto(Producto)</text><ellipse cx="18" cy="364.9159" fill="#84BE84" rx="3" ry="3" style="stroke:#038048;stroke-width:1;"/><text fill="#FFFFFF" font-family="sans-serif" font-size="14" lengthAdjust="spacing" textLength="192.6025" x="27" y="368.2626">eliminarProducto(Producto)</text><ellipse cx="18" cy="381.2128" fill="#84BE84" rx="3" ry="3" style="stroke:#038048;stroke-width:1;"/><text fill="#FFFFFF" font-family="sans-serif" font-size="14" lengthAdjust="spacing" textLength="100.96" x="27" y="384.5595">calcularTotal()</text></g><!--link Usuario to Carrito--><g id="link_Usuario_Carrito"><path codeLine="30" d="M116.3,169.43 C116.3,194.3 116.3,221.52 116.3,245.8 " fill="none" id="Usuario-Carrito" style="stroke:#E7E7E7;stroke-width:1;"/><text fill="#FFFFFF" font-family="sans-serif" font-size="13" lengthAdjust="spacing" textLength="32.9443" x="117.3" y="212.1469">tiene</text><text fill="#FFFFFF" font-family="sans-serif" font-size="13" lengthAdjust="spacing" textLength="8.271" x="107.9676" y="189.1417">1</text><text fill="#FFFFFF" font-family="sans-serif" font-size="13" lengthAdjust="spacing" textLength="6.5" x="110.0292" y="234.9324">*</text></g><!--link Carrito to Producto--><g id="link_Carrito_Producto"><path codeLine="31" d="M116.3,392.09 C116.3,416.34 116.3,443.54 116.3,468.39 " fill="none" id="Carrito-Producto" style="stroke:#E7E7E7;stroke-width:1;"/><text fill="#FFFFFF" font-family="sans-serif" font-size="13" lengthAdjust="spacing" textLength="56.2847" x="117.3" y="434.9269">contiene</text><text fill="#FFFFFF" font-family="sans-serif" font-size="13" lengthAdjust="spacing" textLength="8.271" x="107.9315" y="411.8473">1</text><text fill="#FFFFFF" font-family="sans-serif" font-size="13" lengthAdjust="spacing" textLength="6.5" x="110.0637" y="457.8134">*</text></g><!--SRC=[ZP6zQiGm383tF8N8r1yoT3MbotNiKBZh0-WK4GIEVCZsqgFltjI9GqAlq4tw9AGFYJp621yneqc0QmFGWVGEte8E9T4mdeqT79F9WdX4yJj2GPDXPCKDVWGoHZjareHtzuM82WdQaQC4NHYnsGPzDGqLgNSBVQRqNwkU8vbSQ9gounVZYJbu3VdikMp4mNX0gmiM3wIKqSldhm9x6KLtU9Kye9dSTippKLszxc8ppuXJeyJqN6U-t1IhmHyU-pAXf-pHJY6XdnthNzkd5heEseTs5NQGX9MRcczQriExyjYVjcy0]--></g></svg>